# Blender v3.0.1 OBJ File: 'pencil.blend'
# www.blender.org
mtllib pen.mtl
o Cylinder_Cylinder.001
v 0.000000 -0.000962 -0.100000
v -0.000000 1.923090 0.000000
v 0.070711 -0.000962 -0.070711
v 0.100000 -0.000962 0.000000
v 0.070711 -0.000962 0.070711
v -0.000000 -0.000962 0.100000
v -0.070711 -0.000962 0.070711
v -0.100000 -0.000962 -0.000000
v -0.070711 -0.000962 -0.070711
v 0.000000 1.637176 -0.100000
v 0.070711 1.637176 -0.070711
v 0.100000 1.637176 0.000000
v 0.070711 1.637176 0.070711
v -0.000000 1.637176 0.100000
v -0.070711 1.637176 0.070711
v -0.100000 1.637176 -0.000000
v -0.070711 1.637176 -0.070711
vt 1.000000 0.937500
vt 0.875000 1.000000
vt 0.875000 0.937500
vt 0.750000 1.000000
vt 0.750000 0.937500
vt 0.625000 1.000000
vt 0.625000 0.937500
vt 0.500000 1.000000
vt 0.500000 0.937500
vt 0.375000 1.000000
vt 0.375000 0.937500
vt 0.250000 1.000000
vt 0.250000 0.937500
vt 0.125000 1.000000
vt 0.125000 0.937500
vt 0.000000 1.000000
vt 0.000000 0.937500
vt 0.750000 0.490000
vt 0.919706 0.419706
vt 0.990000 0.250000
vt 0.919706 0.080294
vt 0.750000 0.010000
vt 0.580294 0.080294
vt 0.510000 0.250000
vt 0.580294 0.419706
vt 0.000000 0.000000
vt 0.000000 0.000000
vt 0.000000 0.000000
vt 0.000000 0.000000
vt 0.000000 0.000000
vt 0.000000 0.000000
vt 0.000000 0.000000
vt 0.000000 0.000000
vt 0.000000 0.000000
vt 0.000000 0.000000
vt 0.000000 0.000000
vt 0.000000 0.000000
vt 0.000000 0.000000
vt 0.000000 0.000000
vt 0.000000 0.000000
vt 0.000000 0.000000
vn 0.3641 0.3075 -0.8791
vn 0.8791 0.3075 -0.3641
vn 0.8791 0.3075 0.3641
vn 0.3641 0.3075 0.8791
vn -0.3641 0.3075 0.8791
vn -0.8791 0.3075 0.3641
vn -0.8791 0.3075 -0.3641
vn -0.3641 0.3075 -0.8791
vn 0.0000 -1.0000 0.0000
vn -0.9239 0.0000 0.3827
vn -0.9239 0.0000 -0.3827
vn -0.3827 0.0000 -0.9239
vn 0.3827 0.0000 -0.9239
vn 0.9239 0.0000 -0.3827
vn 0.9239 0.0000 0.3827
vn 0.3827 0.0000 0.9239
vn -0.3827 0.0000 0.9239
usemtl None
s off
f 10/1/1 2/2/1 11/3/1
f 11/3/2 2/4/2 12/5/2
f 12/5/3 2/6/3 13/7/3
f 13/7/4 2/8/4 14/9/4
f 14/9/5 2/10/5 15/11/5
f 15/11/6 2/12/6 16/13/6
f 16/13/7 2/14/7 17/15/7
f 17/15/8 2/16/8 10/17/8
f 1/18/9 3/19/9 4/20/9 5/21/9 6/22/9 7/23/9 8/24/9 9/25/9
f 16/26/10 8/27/10 7/28/10
f 16/26/10 7/28/10 15/29/10
f 17/30/11 9/31/11 8/27/11
f 17/30/11 8/27/11 16/26/11
f 10/32/12 1/33/12 9/31/12
f 10/32/12 9/31/12 17/30/12
f 11/34/13 3/35/13 1/33/13
f 11/34/13 1/33/13 10/32/13
f 12/36/14 4/37/14 3/35/14
f 12/36/14 3/35/14 11/34/14
f 13/38/15 5/39/15 4/37/15
f 13/38/15 4/37/15 12/36/15
f 14/40/16 6/41/16 5/39/16
f 14/40/16 5/39/16 13/38/16
f 15/29/17 7/28/17 6/41/17
f 15/29/17 6/41/17 14/40/17
